# xmcd CD database file
#
# Track frame offsets:
#	150
#	15461
#	29570
#	46440
#	63897
#	85121
#	101011
#	114687
#	130982
#	147757
#	163108
#	178336
#
# Disc length: 2626 seconds
#
# Revision: 0
# Processed by: cddbd v1.5.2PL0 Copyright (c) Steve Scherf et al.
# Submitted via: CDex 1.70beta3
#
DISCID=a40a400c
DTITLE=Rooster - Rooster
DYEAR=1900
DGENRE=ロック
TTITLE0=Joyride
TTITLE1=Come Get Some
TTITLE2=Standing In Line
TTITLE3=Staring At The Sun
TTITLE4=To Die For
TTITLE5=You're So Right For Me
TTITLE6=Platinum Blind
TTITLE7=Deep And Meaningless
TTITLE8=On The Road
TTITLE9=She Don't Make Me Feel
TTITLE10=Angels Calling
TTITLE11=Drag The Sunrise Down
EXTD=
EXTT0=
EXTT1=
EXTT2=
EXTT3=
EXTT4=
EXTT5=
EXTT6=
EXTT7=
EXTT8=
EXTT9=
EXTT10=
EXTT11=
PLAYORDER=
